<svg width="268" height="24" viewBox="0 0 268 24" fill="none" xmlns="http://www.w3.org/2000/svg">
<path d="M8.765 0.484375H11.9056L20.515 23H17.765L15.6244 17.3594H5.15562L3.03062 23H0.264999L8.765 0.484375ZM14.8744 15.1562L10.3431 2.78125L5.89 15.1562H14.8744ZM33.0849 21.0625V23H21.8036V21.3281L30.2411 9.09375H21.9443V7.20312H33.038V8.71875L24.6943 21.0625H33.0849ZM42.0923 23.3594C40.6652 23.3594 39.5558 23.1667 38.7641 22.7812C37.9725 22.3958 37.4048 21.7604 37.061 20.875C36.7277 19.9792 36.561 18.7292 36.561 17.125V7.20312H38.9673V16.7031C38.9673 17.9219 39.0818 18.8698 39.311 19.5469C39.5506 20.2135 39.936 20.6927 40.4673 20.9844C41.0089 21.2656 41.7693 21.4062 42.7485 21.4062C44.3006 21.4062 45.4464 21 46.186 20.1875C46.9256 19.3646 47.2954 18.1042 47.2954 16.4062V7.20312H49.686V23H47.686L47.4829 20.8906C46.962 21.6823 46.2329 22.2917 45.2954 22.7188C44.3683 23.1458 43.3006 23.3594 42.0923 23.3594ZM67.709 23H65.0527L63.2246 19.1562C62.7559 18.1771 62.3288 17.4375 61.9434 16.9375C61.558 16.4375 61.1257 16.0885 60.6465 15.8906C60.1777 15.6927 59.5736 15.5938 58.834 15.5938H57.3652V23H54.9746V0.484375H57.3652V13.3125H58.8184C59.5892 13.3125 60.2194 13.2188 60.709 13.0312C61.1986 12.8438 61.6205 12.5417 61.9746 12.125C62.3288 11.6979 62.6882 11.0885 63.0527 10.2969L64.4902 7.20312H67.0371L65.5996 10.4219C65.183 11.3594 64.8184 12.0781 64.5059 12.5781C64.1934 13.0677 63.8132 13.4635 63.3652 13.7656C62.9277 14.0677 62.3496 14.2969 61.6309 14.4531C62.308 14.599 62.8548 14.8281 63.2715 15.1406C63.6882 15.4427 64.0684 15.8698 64.4121 16.4219C64.7663 16.974 65.2142 17.8177 65.7559 18.9531L67.709 23ZM72.0445 1.34375H75.2476V4.34375H72.0445V1.34375ZM72.4507 7.20312H74.8414V23H72.4507V7.20312ZM78.8019 7.20312H81.3175L83.7863 16.9531L84.6769 21.0469L85.5988 17.125L88.6144 7.20312H91.5831L94.5363 17.0156L95.5206 21.0156L96.4425 17.0156L98.8488 7.20312H101.318L96.7863 23H94.0519L90.0831 9.34375L86.0831 23H83.3331L78.8019 7.20312ZM110.575 23.3594C108.856 23.3594 107.481 23.0833 106.45 22.5312C105.419 21.9792 104.663 21.1042 104.184 19.9062C103.715 18.7083 103.481 17.1094 103.481 15.1094C103.481 13.2344 103.715 11.6927 104.184 10.4844C104.653 9.26562 105.403 8.35417 106.434 7.75C107.465 7.14583 108.825 6.84375 110.512 6.84375C112.127 6.84375 113.419 7.08333 114.387 7.5625C115.367 8.04167 116.08 8.80208 116.528 9.84375C116.976 10.875 117.2 12.2552 117.2 13.9844L117.184 15.5H105.919C105.919 16.9479 106.075 18.1094 106.387 18.9844C106.71 19.849 107.21 20.4844 107.887 20.8906C108.575 21.2865 109.492 21.4844 110.637 21.4844C111.564 21.4844 112.309 21.3906 112.872 21.2031C113.445 21.0156 113.867 20.7188 114.137 20.3125C114.419 19.8958 114.575 19.3438 114.606 18.6562H117.059C117.059 20.2604 116.528 21.4479 115.465 22.2188C114.413 22.9792 112.783 23.3594 110.575 23.3594ZM114.747 13.7188C114.778 12.5208 114.653 11.5625 114.372 10.8438C114.09 10.125 113.632 9.59896 112.997 9.26562C112.361 8.93229 111.512 8.76562 110.45 8.76562C109.335 8.76562 108.46 8.91667 107.825 9.21875C107.2 9.52083 106.742 10.026 106.45 10.7344C106.158 11.4427 105.992 12.4375 105.95 13.7188H114.747ZM147.48 12V23.1562H145.543L145.277 19.9688C144.61 21.2083 143.715 22.125 142.59 22.7188C141.465 23.3125 140.069 23.6094 138.402 23.6094C134.965 23.6094 132.423 22.6615 130.777 20.7656C129.142 18.8698 128.324 15.9271 128.324 11.9375C128.324 7.875 129.147 4.86979 130.793 2.92188C132.449 0.973958 134.991 0 138.418 0C140.324 0 141.944 0.265625 143.277 0.796875C144.621 1.32812 145.631 2.10938 146.308 3.14062C146.996 4.16146 147.329 5.40104 147.308 6.85938H144.668C144.668 5.41146 144.131 4.29688 143.058 3.51562C141.985 2.73438 140.454 2.34375 138.465 2.34375C135.975 2.34375 134.131 3.11979 132.933 4.67188C131.735 6.22396 131.137 8.61458 131.137 11.8438C131.137 13.9896 131.35 15.7448 131.777 17.1094C132.215 18.474 132.965 19.5104 134.027 20.2188C135.09 20.9271 136.548 21.2812 138.402 21.2812C140.433 21.2812 142.001 20.8021 143.105 19.8438C144.209 18.875 144.762 17.5052 144.762 15.7344V14.5H137.933V12H147.48ZM150.55 7.20312H153.066L155.535 16.9531L156.425 21.0469L157.347 17.125L160.363 7.20312H163.331L166.285 17.0156L167.269 21.0156L168.191 17.0156L170.597 7.20312H173.066L168.535 23H165.8L161.831 9.34375L157.831 23H155.081L150.55 7.20312ZM182.323 23.3594C180.604 23.3594 179.229 23.0833 178.198 22.5312C177.167 21.9792 176.412 21.1042 175.932 19.9062C175.464 18.7083 175.229 17.1094 175.229 15.1094C175.229 13.2344 175.464 11.6927 175.932 10.4844C176.401 9.26562 177.151 8.35417 178.182 7.75C179.214 7.14583 180.573 6.84375 182.261 6.84375C183.875 6.84375 185.167 7.08333 186.136 7.5625C187.115 8.04167 187.828 8.80208 188.276 9.84375C188.724 10.875 188.948 12.2552 188.948 13.9844L188.932 15.5H177.667C177.667 16.9479 177.823 18.1094 178.136 18.9844C178.459 19.849 178.959 20.4844 179.636 20.8906C180.323 21.2865 181.24 21.4844 182.386 21.4844C183.313 21.4844 184.057 21.3906 184.62 21.2031C185.193 21.0156 185.615 20.7188 185.886 20.3125C186.167 19.8958 186.323 19.3438 186.354 18.6562H188.807C188.807 20.2604 188.276 21.4479 187.214 22.2188C186.162 22.9792 184.531 23.3594 182.323 23.3594ZM186.495 13.7188C186.526 12.5208 186.401 11.5625 186.12 10.8438C185.839 10.125 185.38 9.59896 184.745 9.26562C184.11 8.93229 183.261 8.76562 182.198 8.76562C181.084 8.76562 180.209 8.91667 179.573 9.21875C178.948 9.52083 178.49 10.026 178.198 10.7344C177.906 11.4427 177.74 12.4375 177.698 13.7188H186.495ZM192.815 7.20312H194.784L194.971 9.4375C195.492 8.47917 196.179 7.80208 197.034 7.40625C197.888 7 199.054 6.79688 200.534 6.79688C201.888 6.79688 202.971 7.01562 203.784 7.45312C204.607 7.89062 205.206 8.58854 205.581 9.54688C205.956 10.5052 206.143 11.776 206.143 13.3594V23H203.737V13.3594C203.737 12.2552 203.607 11.375 203.346 10.7188C203.086 10.0521 202.669 9.56771 202.096 9.26562C201.534 8.96354 200.778 8.8125 199.831 8.8125C198.716 8.8125 197.82 8.96875 197.143 9.28125C196.476 9.59375 195.987 10.0885 195.674 10.7656C195.372 11.4427 195.221 12.349 195.221 13.4844V23H192.815V7.20312ZM216.494 23.4062C213.598 23.4062 212.15 21.7656 212.15 18.4844V9.0625H209.307V7.15625H212.15V2.82812H214.541V7.15625H218.432V9.0625H214.557V18.8125C214.557 19.6979 214.744 20.3333 215.119 20.7188C215.494 21.0938 216.109 21.2812 216.963 21.2812C217.546 21.2812 218.15 21.224 218.775 21.1094V23.1875C218.046 23.3333 217.286 23.4062 216.494 23.4062ZM227.158 23.3594C225.668 23.3594 224.475 23.2083 223.58 22.9062C222.694 22.5938 222.043 22.1042 221.626 21.4375C221.22 20.7604 221.017 19.8646 221.017 18.75H223.142C223.153 19.4688 223.278 20.026 223.517 20.4219C223.767 20.8177 224.173 21.099 224.736 21.2656C225.298 21.4323 226.085 21.5156 227.095 21.5156C228.001 21.5156 228.705 21.4271 229.205 21.25C229.715 21.0729 230.074 20.7812 230.283 20.375C230.501 19.9583 230.611 19.3802 230.611 18.6406C230.611 18.099 230.465 17.651 230.173 17.2969C229.892 16.9427 229.429 16.651 228.783 16.4219C228.137 16.1823 227.246 15.9844 226.111 15.8281C224.34 15.5781 223.048 15.099 222.236 14.3906C221.423 13.6823 221.017 12.651 221.017 11.2969C221.017 9.78646 221.507 8.66667 222.486 7.9375C223.465 7.20833 224.975 6.84375 227.017 6.84375C228.434 6.84375 229.559 7 230.392 7.3125C231.236 7.61458 231.84 8.10417 232.205 8.78125C232.569 9.44792 232.731 10.3385 232.689 11.4531H230.533C230.533 10.776 230.413 10.2344 230.173 9.82812C229.944 9.42188 229.574 9.125 229.064 8.9375C228.554 8.75 227.871 8.65625 227.017 8.65625C226.132 8.65625 225.418 8.75 224.876 8.9375C224.345 9.125 223.955 9.42188 223.705 9.82812C223.465 10.224 223.345 10.7552 223.345 11.4219C223.345 11.9115 223.475 12.3177 223.736 12.6406C223.996 12.9635 224.434 13.2344 225.048 13.4531C225.673 13.6719 226.543 13.8594 227.658 14.0156C228.929 14.1927 229.934 14.4583 230.673 14.8125C231.423 15.1562 231.97 15.6354 232.314 16.25C232.658 16.8542 232.83 17.651 232.83 18.6406C232.83 19.7865 232.637 20.7031 232.251 21.3906C231.876 22.0677 231.278 22.5677 230.455 22.8906C229.632 23.2031 228.533 23.3594 227.158 23.3594ZM236.946 0.46875H239.337L239.29 9.39062C239.665 8.71354 240.077 8.19271 240.525 7.82812C240.983 7.45312 241.535 7.1875 242.181 7.03125C242.837 6.86458 243.67 6.78125 244.681 6.78125C246.097 6.78125 247.212 7.02604 248.025 7.51562C248.837 8.00521 249.415 8.76042 249.759 9.78125C250.113 10.7917 250.29 12.1354 250.29 13.8125V22.9844H247.884V13.3438C247.884 12.2396 247.754 11.3594 247.493 10.7031C247.233 10.0365 246.816 9.55208 246.243 9.25C245.681 8.94792 244.926 8.79688 243.978 8.79688C242.405 8.79688 241.243 9.19792 240.493 10C239.743 10.7917 239.368 12.0104 239.368 13.6562V22.9844H236.962L236.946 0.46875ZM261.251 23.3594C259.532 23.3594 258.157 23.0833 257.126 22.5312C256.094 21.9792 255.339 21.1042 254.86 19.9062C254.391 18.7083 254.157 17.1094 254.157 15.1094C254.157 13.2344 254.391 11.6927 254.86 10.4844C255.329 9.26562 256.079 8.35417 257.11 7.75C258.141 7.14583 259.501 6.84375 261.188 6.84375C262.803 6.84375 264.094 7.08333 265.063 7.5625C266.042 8.04167 266.756 8.80208 267.204 9.84375C267.652 10.875 267.876 12.2552 267.876 13.9844L267.86 15.5H256.594C256.594 16.9479 256.751 18.1094 257.063 18.9844C257.386 19.849 257.886 20.4844 258.563 20.8906C259.251 21.2865 260.167 21.4844 261.313 21.4844C262.24 21.4844 262.985 21.3906 263.547 21.2031C264.12 21.0156 264.542 20.7188 264.813 20.3125C265.094 19.8958 265.251 19.3438 265.282 18.6562H267.735C267.735 20.2604 267.204 21.4479 266.141 22.2188C265.089 22.9792 263.459 23.3594 261.251 23.3594ZM265.422 13.7188C265.454 12.5208 265.329 11.5625 265.047 10.8438C264.766 10.125 264.308 9.59896 263.672 9.26562C263.037 8.93229 262.188 8.76562 261.126 8.76562C260.011 8.76562 259.136 8.91667 258.501 9.21875C257.876 9.52083 257.417 10.026 257.126 10.7344C256.834 11.4427 256.667 12.4375 256.626 13.7188H265.422Z" fill="black"/>
</svg>
